<svg xmlns="http://www.w3.org/2000/svg" viewBox="0 0 1600 560" width="1600" height="560" preserveAspectRatio="xMidYMid slice" role="img" aria-label="">
  <defs>
    <linearGradient id="sky" x1="0" y1="0" x2="0" y2="1">
      <stop offset="0" stop-color="#F8F2E8"/>
      <stop offset="0.5" stop-color="#F1E8D8"/>
      <stop offset="1" stop-color="#EAE0CF"/>
    </linearGradient>
    <radialGradient id="sun" cx="0.72" cy="0.34" r="0.6">
      <stop offset="0" stop-color="#F4E2D4" stop-opacity="0.95"/>
      <stop offset="0.45" stop-color="#F4E2D4" stop-opacity="0.42"/>
      <stop offset="1" stop-color="#F4E2D4" stop-opacity="0"/>
    </radialGradient>
    <linearGradient id="haze" x1="0" y1="0" x2="0" y2="1">
      <stop offset="0" stop-color="#F7F1E7" stop-opacity="0.55"/>
      <stop offset="1" stop-color="#F7F1E7" stop-opacity="0"/>
    </linearGradient>
  </defs>


  <rect width="1600" height="560" fill="url(#sky)"/>
  <rect width="1600" height="560" fill="url(#sun)"/>
  <circle cx="1152" cy="150" r="70" fill="#F6E7D8" opacity="0.85"/>


  <path d="M0,196 C260,176 520,192 800,184 C1080,176 1340,194 1600,182 L1600,560 L0,560 Z" fill="#DCE2D1"/>
  <path d="M0,240 C280,220 540,242 820,232 C1100,222 1360,244 1600,234 L1600,560 L0,560 Z" fill="#C2CEB1"/>

  <rect x="0" y="188" width="1600" height="120" fill="url(#haze)"/>
  <path d="M0,288 C260,270 520,292 800,282 C1080,272 1340,294 1600,284 L1600,560 L0,560 Z" fill="#9DB293"/>
  <path d="M0,342 C300,326 560,348 840,338 C1120,328 1380,350 1600,340 L1600,560 L0,560 Z" fill="#5F8268"/>
  <path d="M0,400 C320,388 600,408 880,398 C1160,388 1400,408 1600,400 L1600,560 L0,560 Z" fill="#356B4D"/>
</svg>
